<mxfile host="app.diagrams.net" agent="Mozilla/5.0 (Windows NT 10.0; Win64; x64; rv:133.0) Gecko/20100101 Firefox/133.0" version="25.0.3" pages="4">
  <diagram id="6JvZwBCVHnRGvAxwM3tI" name="1-Stack">
    <mxGraphModel dx="1434" dy="774" grid="1" gridSize="10" guides="1" tooltips="1" connect="1" arrows="1" fold="1" page="1" pageScale="1" pageWidth="850" pageHeight="1100" math="0" shadow="0">
      <root>
        <mxCell id="0" />
        <mxCell id="1" parent="0" />
        <mxCell id="e3DpNm9XzhbAye2ZpUpc-1" value="" style="rounded=0;whiteSpace=wrap;html=1;fillColor=#e1d5e7;strokeColor=#9673a6;" parent="1" vertex="1">
          <mxGeometry x="30" y="80" width="790" height="320" as="geometry" />
        </mxCell>
        <mxCell id="e3DpNm9XzhbAye2ZpUpc-2" value="" style="rounded=1;whiteSpace=wrap;html=1;fillColor=#f5f5f5;strokeColor=#666666;fontColor=#333333;" parent="1" vertex="1">
          <mxGeometry x="50" y="100" width="190" height="280" as="geometry" />
        </mxCell>
        <mxCell id="e3DpNm9XzhbAye2ZpUpc-3" value="" style="rounded=1;whiteSpace=wrap;html=1;fillColor=#f5f5f5;strokeColor=#666666;fontColor=#333333;" parent="1" vertex="1">
          <mxGeometry x="290" y="100" width="510" height="280" as="geometry" />
        </mxCell>
        <mxCell id="e3DpNm9XzhbAye2ZpUpc-4" value="Stack" style="text;html=1;strokeColor=none;fillColor=none;align=center;verticalAlign=middle;whiteSpace=wrap;rounded=0;" parent="1" vertex="1">
          <mxGeometry x="120" y="110" width="40" height="20" as="geometry" />
        </mxCell>
        <mxCell id="e3DpNm9XzhbAye2ZpUpc-5" value="Heap" style="text;html=1;strokeColor=none;fillColor=none;align=center;verticalAlign=middle;whiteSpace=wrap;rounded=0;" parent="1" vertex="1">
          <mxGeometry x="520" y="110" width="40" height="20" as="geometry" />
        </mxCell>
        <mxCell id="dHa6yCZfNs0ZDMH6f5BU-1" value="Product&lt;br&gt;" style="shape=process;whiteSpace=wrap;html=1;backgroundOutline=1;fontSize=16;" parent="1" vertex="1">
          <mxGeometry x="340" y="150" width="420" height="60" as="geometry" />
        </mxCell>
        <mxCell id="dHa6yCZfNs0ZDMH6f5BU-2" value="p1&lt;br&gt;" style="ellipse;whiteSpace=wrap;html=1;fontSize=16;fillColor=#d5e8d4;strokeColor=#82b366;" parent="1" vertex="1">
          <mxGeometry x="100" y="170" width="65" height="20" as="geometry" />
        </mxCell>
        <mxCell id="dHa6yCZfNs0ZDMH6f5BU-5" value="p2" style="ellipse;whiteSpace=wrap;html=1;fontSize=16;fillColor=#d5e8d4;strokeColor=#82b366;" parent="1" vertex="1">
          <mxGeometry x="100" y="230" width="65" height="20" as="geometry" />
        </mxCell>
      </root>
    </mxGraphModel>
  </diagram>
  <diagram id="NFp1OnWu2yK0_XkJn490" name="5-Exercice3">
    <mxGraphModel dx="1434" dy="774" grid="1" gridSize="10" guides="1" tooltips="1" connect="1" arrows="1" fold="1" page="1" pageScale="1" pageWidth="850" pageHeight="1100" math="0" shadow="0">
      <root>
        <mxCell id="-jzJUh-4RhVA3oOPNSEX-0" />
        <mxCell id="-jzJUh-4RhVA3oOPNSEX-1" parent="-jzJUh-4RhVA3oOPNSEX-0" />
        <mxCell id="P-KetLvytib8GP--b5vO-0" value="" style="rounded=0;whiteSpace=wrap;html=1;" parent="-jzJUh-4RhVA3oOPNSEX-1" vertex="1">
          <mxGeometry x="200" y="118.44" width="360" height="240" as="geometry" />
        </mxCell>
        <mxCell id="S4r46cS-gj8OAon0001p-0" value="Line 1" style="strokeWidth=1;shadow=0;dashed=0;align=center;html=1;shape=mxgraph.mockup.text.textBox;fontColor=#666666;align=left;fontSize=17;spacingLeft=4;spacingTop=-3;strokeColor=#666666;mainText=" parent="-jzJUh-4RhVA3oOPNSEX-1" vertex="1">
          <mxGeometry x="330" y="140" width="180" height="30" as="geometry" />
        </mxCell>
        <mxCell id="S4r46cS-gj8OAon0001p-1" value="A" style="text;html=1;strokeColor=none;fillColor=none;align=center;verticalAlign=middle;whiteSpace=wrap;rounded=0;fontSize=16;" parent="-jzJUh-4RhVA3oOPNSEX-1" vertex="1">
          <mxGeometry x="250" y="140" width="55" height="30" as="geometry" />
        </mxCell>
        <mxCell id="S4r46cS-gj8OAon0001p-2" value="Line 1" style="strokeWidth=1;shadow=0;dashed=0;align=center;html=1;shape=mxgraph.mockup.text.textBox;fontColor=#666666;align=left;fontSize=17;spacingLeft=4;spacingTop=-3;strokeColor=#666666;mainText=" parent="-jzJUh-4RhVA3oOPNSEX-1" vertex="1">
          <mxGeometry x="330" y="180" width="180" height="30" as="geometry" />
        </mxCell>
        <mxCell id="S4r46cS-gj8OAon0001p-3" value="B" style="text;html=1;strokeColor=none;fillColor=none;align=center;verticalAlign=middle;whiteSpace=wrap;rounded=0;fontSize=16;" parent="-jzJUh-4RhVA3oOPNSEX-1" vertex="1">
          <mxGeometry x="250" y="180" width="55" height="30" as="geometry" />
        </mxCell>
        <mxCell id="S4r46cS-gj8OAon0001p-5" value="+" style="rounded=1;html=1;shadow=0;dashed=0;whiteSpace=wrap;fontSize=10;fillColor=#666666;align=center;strokeColor=#4D4D4D;fontColor=#ffffff;" parent="-jzJUh-4RhVA3oOPNSEX-1" vertex="1">
          <mxGeometry x="280" y="230" width="50" height="16.88" as="geometry" />
        </mxCell>
        <mxCell id="S4r46cS-gj8OAon0001p-6" value="--" style="rounded=1;html=1;shadow=0;dashed=0;whiteSpace=wrap;fontSize=10;fillColor=#666666;align=center;strokeColor=#4D4D4D;fontColor=#ffffff;" parent="-jzJUh-4RhVA3oOPNSEX-1" vertex="1">
          <mxGeometry x="340" y="230" width="50" height="16.88" as="geometry" />
        </mxCell>
        <mxCell id="S4r46cS-gj8OAon0001p-7" value="*" style="rounded=1;html=1;shadow=0;dashed=0;whiteSpace=wrap;fontSize=10;fillColor=#666666;align=center;strokeColor=#4D4D4D;fontColor=#ffffff;" parent="-jzJUh-4RhVA3oOPNSEX-1" vertex="1">
          <mxGeometry x="400" y="230" width="50" height="16.88" as="geometry" />
        </mxCell>
        <mxCell id="S4r46cS-gj8OAon0001p-8" value="/" style="rounded=1;html=1;shadow=0;dashed=0;whiteSpace=wrap;fontSize=10;fillColor=#666666;align=center;strokeColor=#4D4D4D;fontColor=#ffffff;" parent="-jzJUh-4RhVA3oOPNSEX-1" vertex="1">
          <mxGeometry x="460" y="230" width="50" height="16.88" as="geometry" />
        </mxCell>
        <mxCell id="S4r46cS-gj8OAon0001p-11" value="Line 1" style="strokeWidth=1;shadow=0;dashed=0;align=center;html=1;shape=mxgraph.mockup.text.textBox;fontColor=#666666;align=left;fontSize=17;spacingLeft=4;spacingTop=-3;strokeColor=#666666;mainText=" parent="-jzJUh-4RhVA3oOPNSEX-1" vertex="1">
          <mxGeometry x="330" y="270" width="180" height="30" as="geometry" />
        </mxCell>
        <mxCell id="S4r46cS-gj8OAon0001p-12" value="Result" style="text;html=1;strokeColor=none;fillColor=none;align=center;verticalAlign=middle;whiteSpace=wrap;rounded=0;fontSize=16;" parent="-jzJUh-4RhVA3oOPNSEX-1" vertex="1">
          <mxGeometry x="250" y="270" width="55" height="30" as="geometry" />
        </mxCell>
      </root>
    </mxGraphModel>
  </diagram>
  <diagram id="zagfrg8lVSEpL426IzF_" name="3-Exercice">
    <mxGraphModel dx="1434" dy="655" grid="1" gridSize="10" guides="1" tooltips="1" connect="1" arrows="1" fold="1" page="1" pageScale="1" pageWidth="850" pageHeight="1100" math="0" shadow="0">
      <root>
        <mxCell id="ka-YFrYOrOeDm2bTHJlX-0" />
        <mxCell id="ka-YFrYOrOeDm2bTHJlX-1" parent="ka-YFrYOrOeDm2bTHJlX-0" />
        <mxCell id="M8DRsebZvGFNZ55sFME3-1" value="Window Title" style="strokeWidth=1;shadow=0;dashed=0;align=center;html=1;shape=mxgraph.mockup.containers.window;align=left;verticalAlign=top;spacingLeft=8;strokeColor2=#008cff;strokeColor3=#c4c4c4;fontColor=#666666;mainText=;fontSize=17;labelBackgroundColor=none;" parent="ka-YFrYOrOeDm2bTHJlX-1" vertex="1">
          <mxGeometry x="20" y="50" width="780" height="490" as="geometry" />
        </mxCell>
        <mxCell id="M8DRsebZvGFNZ55sFME3-2" value="1" style="strokeWidth=1;shadow=0;dashed=0;align=center;html=1;shape=mxgraph.mockup.text.textBox;fontColor=#666666;align=left;fontSize=17;spacingLeft=4;spacingTop=-3;strokeColor=#666666;mainText=" parent="ka-YFrYOrOeDm2bTHJlX-1" vertex="1">
          <mxGeometry x="390" y="150" width="150" height="30" as="geometry" />
        </mxCell>
        <mxCell id="M8DRsebZvGFNZ55sFME3-7" value="First Name&lt;br&gt;" style="text;html=1;strokeColor=none;fillColor=none;align=center;verticalAlign=middle;whiteSpace=wrap;rounded=0;fontSize=16;" parent="ka-YFrYOrOeDm2bTHJlX-1" vertex="1">
          <mxGeometry x="280" y="195" width="90" height="30" as="geometry" />
        </mxCell>
        <mxCell id="M8DRsebZvGFNZ55sFME3-9" value="Last Name" style="text;html=1;strokeColor=none;fillColor=none;align=center;verticalAlign=middle;whiteSpace=wrap;rounded=0;fontSize=16;" parent="ka-YFrYOrOeDm2bTHJlX-1" vertex="1">
          <mxGeometry x="280" y="245" width="90" height="30" as="geometry" />
        </mxCell>
        <mxCell id="M8DRsebZvGFNZ55sFME3-11" value="Email" style="text;html=1;strokeColor=none;fillColor=none;align=center;verticalAlign=middle;whiteSpace=wrap;rounded=0;fontSize=16;" parent="ka-YFrYOrOeDm2bTHJlX-1" vertex="1">
          <mxGeometry x="310" y="295" width="60" height="30" as="geometry" />
        </mxCell>
        <mxCell id="M8DRsebZvGFNZ55sFME3-13" value="Tel" style="text;html=1;strokeColor=none;fillColor=none;align=center;verticalAlign=middle;whiteSpace=wrap;rounded=0;fontSize=16;" parent="ka-YFrYOrOeDm2bTHJlX-1" vertex="1">
          <mxGeometry x="310" y="345" width="60" height="30" as="geometry" />
        </mxCell>
        <mxCell id="M8DRsebZvGFNZ55sFME3-14" value="ID" style="text;html=1;strokeColor=none;fillColor=none;align=center;verticalAlign=middle;whiteSpace=wrap;rounded=0;fontSize=16;" parent="ka-YFrYOrOeDm2bTHJlX-1" vertex="1">
          <mxGeometry x="300" y="140" width="55" height="30" as="geometry" />
        </mxCell>
        <mxCell id="M8DRsebZvGFNZ55sFME3-15" value="123213" style="strokeWidth=1;shadow=0;dashed=0;align=center;html=1;shape=mxgraph.mockup.text.textBox;fontColor=#666666;align=left;fontSize=17;spacingLeft=4;spacingTop=-3;strokeColor=#666666;mainText=" parent="ka-YFrYOrOeDm2bTHJlX-1" vertex="1">
          <mxGeometry x="390" y="345" width="150" height="30" as="geometry" />
        </mxCell>
        <mxCell id="M8DRsebZvGFNZ55sFME3-16" value="123" style="strokeWidth=1;shadow=0;dashed=0;align=center;html=1;shape=mxgraph.mockup.text.textBox;fontColor=#666666;align=left;fontSize=17;spacingLeft=4;spacingTop=-3;strokeColor=#666666;mainText=" parent="ka-YFrYOrOeDm2bTHJlX-1" vertex="1">
          <mxGeometry x="390" y="295" width="150" height="30" as="geometry" />
        </mxCell>
        <mxCell id="M8DRsebZvGFNZ55sFME3-17" value="1213" style="strokeWidth=1;shadow=0;dashed=0;align=center;html=1;shape=mxgraph.mockup.text.textBox;fontColor=#666666;align=left;fontSize=17;spacingLeft=4;spacingTop=-3;strokeColor=#666666;mainText=" parent="ka-YFrYOrOeDm2bTHJlX-1" vertex="1">
          <mxGeometry x="390" y="245" width="150" height="30" as="geometry" />
        </mxCell>
        <mxCell id="M8DRsebZvGFNZ55sFME3-18" value="ali" style="strokeWidth=1;shadow=0;dashed=0;align=center;html=1;shape=mxgraph.mockup.text.textBox;fontColor=#666666;align=left;fontSize=17;spacingLeft=4;spacingTop=-3;strokeColor=#666666;mainText=" parent="ka-YFrYOrOeDm2bTHJlX-1" vertex="1">
          <mxGeometry x="390" y="195" width="150" height="30" as="geometry" />
        </mxCell>
        <mxCell id="M8DRsebZvGFNZ55sFME3-29" value="&amp;lt;&amp;lt;" style="rounded=1;html=1;shadow=0;dashed=0;whiteSpace=wrap;fontSize=10;fillColor=#666666;align=center;strokeColor=#4D4D4D;fontColor=#ffffff;" parent="ka-YFrYOrOeDm2bTHJlX-1" vertex="1">
          <mxGeometry x="255" y="420" width="40" height="30" as="geometry" />
        </mxCell>
        <mxCell id="M8DRsebZvGFNZ55sFME3-30" value="&amp;lt;" style="rounded=1;html=1;shadow=0;dashed=0;whiteSpace=wrap;fontSize=10;fillColor=#666666;align=center;strokeColor=#4D4D4D;fontColor=#ffffff;" parent="ka-YFrYOrOeDm2bTHJlX-1" vertex="1">
          <mxGeometry x="305" y="420" width="40" height="30" as="geometry" />
        </mxCell>
        <mxCell id="M8DRsebZvGFNZ55sFME3-31" value="Save" style="rounded=1;html=1;shadow=0;dashed=0;whiteSpace=wrap;fontSize=10;fillColor=#666666;align=center;strokeColor=#4D4D4D;fontColor=#ffffff;" parent="ka-YFrYOrOeDm2bTHJlX-1" vertex="1">
          <mxGeometry x="355" y="420" width="40" height="30" as="geometry" />
        </mxCell>
        <mxCell id="M8DRsebZvGFNZ55sFME3-32" value="Del" style="rounded=1;html=1;shadow=0;dashed=0;whiteSpace=wrap;fontSize=10;fillColor=#666666;align=center;strokeColor=#4D4D4D;fontColor=#ffffff;" parent="ka-YFrYOrOeDm2bTHJlX-1" vertex="1">
          <mxGeometry x="405" y="420" width="40" height="30" as="geometry" />
        </mxCell>
        <mxCell id="M8DRsebZvGFNZ55sFME3-33" value="New" style="rounded=1;html=1;shadow=0;dashed=0;whiteSpace=wrap;fontSize=10;fillColor=#666666;align=center;strokeColor=#4D4D4D;fontColor=#ffffff;" parent="ka-YFrYOrOeDm2bTHJlX-1" vertex="1">
          <mxGeometry x="455" y="420" width="40" height="30" as="geometry" />
        </mxCell>
        <mxCell id="M8DRsebZvGFNZ55sFME3-34" value="&amp;gt;" style="rounded=1;html=1;shadow=0;dashed=0;whiteSpace=wrap;fontSize=10;fillColor=#666666;align=center;strokeColor=#4D4D4D;fontColor=#ffffff;" parent="ka-YFrYOrOeDm2bTHJlX-1" vertex="1">
          <mxGeometry x="505" y="420" width="40" height="30" as="geometry" />
        </mxCell>
        <mxCell id="M8DRsebZvGFNZ55sFME3-35" value="&amp;gt;&amp;gt;" style="rounded=1;html=1;shadow=0;dashed=0;whiteSpace=wrap;fontSize=10;fillColor=#666666;align=center;strokeColor=#4D4D4D;fontColor=#ffffff;" parent="ka-YFrYOrOeDm2bTHJlX-1" vertex="1">
          <mxGeometry x="555" y="420" width="40" height="30" as="geometry" />
        </mxCell>
        <mxCell id="M8DRsebZvGFNZ55sFME3-37" value="First" style="strokeWidth=1;shadow=0;dashed=0;align=center;html=1;shape=mxgraph.mockup.text.callout;linkText=;textSize=17;textColor=#666666;callDir=NW;callStyle=line;fontSize=17;fontColor=#666666;align=left;verticalAlign=top;strokeColor=#666666;" parent="ka-YFrYOrOeDm2bTHJlX-1" vertex="1">
          <mxGeometry x="70" y="325" width="200" height="100" as="geometry" />
        </mxCell>
        <mxCell id="M8DRsebZvGFNZ55sFME3-38" value="Prev" style="strokeWidth=1;shadow=0;dashed=0;align=center;html=1;shape=mxgraph.mockup.text.callout;linkText=;textSize=17;textColor=#666666;callDir=NW;callStyle=line;fontSize=17;fontColor=#666666;align=left;verticalAlign=top;strokeColor=#666666;" parent="ka-YFrYOrOeDm2bTHJlX-1" vertex="1">
          <mxGeometry x="180" y="325" width="140" height="100" as="geometry" />
        </mxCell>
        <mxCell id="M8DRsebZvGFNZ55sFME3-39" value="Last" style="strokeWidth=1;shadow=0;dashed=0;align=center;html=1;shape=mxgraph.mockup.text.callout;linkText=;textSize=17;textColor=#666666;callDir=NE;callStyle=line;fontSize=17;fontColor=#666666;align=right;verticalAlign=top;strokeColor=#666666;" parent="ka-YFrYOrOeDm2bTHJlX-1" vertex="1">
          <mxGeometry x="580" y="325" width="200" height="100" as="geometry" />
        </mxCell>
        <mxCell id="M8DRsebZvGFNZ55sFME3-40" value="Next" style="strokeWidth=1;shadow=0;dashed=0;align=center;html=1;shape=mxgraph.mockup.text.callout;linkText=;textSize=17;textColor=#666666;callDir=NE;callStyle=line;fontSize=17;fontColor=#666666;align=right;verticalAlign=top;strokeColor=#666666;" parent="ka-YFrYOrOeDm2bTHJlX-1" vertex="1">
          <mxGeometry x="530" y="320" width="150" height="100" as="geometry" />
        </mxCell>
        <mxCell id="M8DRsebZvGFNZ55sFME3-41" style="edgeStyle=orthogonalEdgeStyle;rounded=0;orthogonalLoop=1;jettySize=auto;html=1;exitX=0.5;exitY=1;exitDx=0;exitDy=0;fontSize=16;" parent="ka-YFrYOrOeDm2bTHJlX-1" source="M8DRsebZvGFNZ55sFME3-14" target="M8DRsebZvGFNZ55sFME3-14" edge="1">
          <mxGeometry relative="1" as="geometry" />
        </mxCell>
      </root>
    </mxGraphModel>
  </diagram>
  <diagram name="4-Exercice2" id="Pvu4AZqvmzLCbV6uUfsB">
    <mxGraphModel dx="1434" dy="655" grid="1" gridSize="10" guides="1" tooltips="1" connect="1" arrows="1" fold="1" page="1" pageScale="1" pageWidth="850" pageHeight="1100" math="0" shadow="0">
      <root>
        <mxCell id="pEZ8P13AdV4W7d0tKOq_-0" />
        <mxCell id="pEZ8P13AdV4W7d0tKOq_-1" parent="pEZ8P13AdV4W7d0tKOq_-0" />
        <mxCell id="pEZ8P13AdV4W7d0tKOq_-2" value="Window Title" style="strokeWidth=1;shadow=0;dashed=0;align=center;html=1;shape=mxgraph.mockup.containers.window;align=left;verticalAlign=top;spacingLeft=8;strokeColor2=#008cff;strokeColor3=#c4c4c4;fontColor=#666666;mainText=;fontSize=17;labelBackgroundColor=none;" parent="pEZ8P13AdV4W7d0tKOq_-1" vertex="1">
          <mxGeometry x="50" y="70" width="780" height="490" as="geometry" />
        </mxCell>
        <mxCell id="pEZ8P13AdV4W7d0tKOq_-3" value="1" style="strokeWidth=1;shadow=0;dashed=0;align=center;html=1;shape=mxgraph.mockup.text.textBox;fontColor=#666666;align=left;fontSize=17;spacingLeft=4;spacingTop=-3;strokeColor=#666666;mainText=" parent="pEZ8P13AdV4W7d0tKOq_-1" vertex="1">
          <mxGeometry x="390" y="140" width="150" height="30" as="geometry" />
        </mxCell>
        <mxCell id="pEZ8P13AdV4W7d0tKOq_-7" value="Result" style="text;html=1;strokeColor=none;fillColor=none;align=center;verticalAlign=middle;whiteSpace=wrap;rounded=0;fontSize=16;" parent="pEZ8P13AdV4W7d0tKOq_-1" vertex="1">
          <mxGeometry x="300" y="500" width="60" height="30" as="geometry" />
        </mxCell>
        <mxCell id="pEZ8P13AdV4W7d0tKOq_-8" value="Value" style="text;html=1;strokeColor=none;fillColor=none;align=center;verticalAlign=middle;whiteSpace=wrap;rounded=0;fontSize=16;" parent="pEZ8P13AdV4W7d0tKOq_-1" vertex="1">
          <mxGeometry x="300" y="140" width="55" height="30" as="geometry" />
        </mxCell>
        <mxCell id="pEZ8P13AdV4W7d0tKOq_-10" value="123" style="strokeWidth=1;shadow=0;dashed=0;align=center;html=1;shape=mxgraph.mockup.text.textBox;fontColor=#666666;align=left;fontSize=17;spacingLeft=4;spacingTop=-3;strokeColor=#666666;mainText=" parent="pEZ8P13AdV4W7d0tKOq_-1" vertex="1">
          <mxGeometry x="380" y="500" width="150" height="30" as="geometry" />
        </mxCell>
        <mxCell id="pEZ8P13AdV4W7d0tKOq_-18" value="cm to in" style="rounded=1;html=1;shadow=0;dashed=0;whiteSpace=wrap;fontSize=10;fillColor=#666666;align=center;strokeColor=#4D4D4D;fontColor=#ffffff;" parent="pEZ8P13AdV4W7d0tKOq_-1" vertex="1">
          <mxGeometry x="435" y="200" width="40" height="30" as="geometry" />
        </mxCell>
        <mxCell id="pEZ8P13AdV4W7d0tKOq_-19" value="o to f" style="rounded=1;html=1;shadow=0;dashed=0;whiteSpace=wrap;fontSize=10;fillColor=#666666;align=center;strokeColor=#4D4D4D;fontColor=#ffffff;" parent="pEZ8P13AdV4W7d0tKOq_-1" vertex="1">
          <mxGeometry x="390" y="200" width="40" height="30" as="geometry" />
        </mxCell>
        <mxCell id="pEZ8P13AdV4W7d0tKOq_-24" style="edgeStyle=orthogonalEdgeStyle;rounded=0;orthogonalLoop=1;jettySize=auto;html=1;exitX=0.5;exitY=1;exitDx=0;exitDy=0;fontSize=16;" parent="pEZ8P13AdV4W7d0tKOq_-1" source="pEZ8P13AdV4W7d0tKOq_-8" target="pEZ8P13AdV4W7d0tKOq_-8" edge="1">
          <mxGeometry relative="1" as="geometry" />
        </mxCell>
        <mxCell id="pEZ8P13AdV4W7d0tKOq_-25" value="gr to lbs" style="rounded=1;html=1;shadow=0;dashed=0;whiteSpace=wrap;fontSize=10;fillColor=#666666;align=center;strokeColor=#4D4D4D;fontColor=#ffffff;" parent="pEZ8P13AdV4W7d0tKOq_-1" vertex="1">
          <mxGeometry x="480" y="200" width="40" height="30" as="geometry" />
        </mxCell>
      </root>
    </mxGraphModel>
  </diagram>
</mxfile>
